<svg id="Capa_1" fill="#f7b731" enable-background="new 0 0 507.67 507.67" height="512" viewBox="0 0 507.67 507.67" width="512" xmlns="http://www.w3.org/2000/svg"><g><path d="m485.752 399.553h-22.911c.788-2.277 1.222-4.719 1.222-7.261 0-12.275-9.986-22.262-22.261-22.262h-7.263v-34.198h7.263c12.274 0 22.261-9.986 22.261-22.262 0-12.274-9.986-22.261-22.261-22.261h-49.885v-28.709c0-8.314-6.765-15.079-15.079-15.079h-7.631v-88.827h11.198c8.314 0 15.079-6.765 15.079-15.079v-28.631c0-8.314-6.765-15.079-15.079-15.079h-7.781l-50.152-44.646c-3.095-2.754-7.836-2.479-10.589.614-2.755 3.095-2.479 7.835.614 10.589l37.567 33.442h-192.459l94.739-84.338c.851-.757 2.13-.759 2.984.001l31.029 27.623c3.095 2.755 7.836 2.479 10.589-.614 2.755-3.094 2.479-7.835-.614-10.589l-31.03-27.624c-6.543-5.824-16.404-5.813-22.932.001l-107.323 95.54h-7.782c-8.314 0-15.079 6.765-15.079 15.079v28.631c0 8.314 6.765 15.079 15.079 15.079h11.198v88.827h-7.631c-8.314 0-15.079 6.765-15.079 15.079v28.71h-10.524c-33.979 0-61.622 27.644-61.622 61.621 0 18.614 8.307 35.313 21.396 46.622h-43.085c-10.58 0-19.188 8.607-19.188 19.188v69.741c0 10.58 8.608 19.188 19.188 19.188h190.834c4.142 0 7.5-3.357 7.5-7.5s-3.358-7.5-7.5-7.5h-79.086v-78.117h240.338v78.117h-126.252c-4.142 0-7.5 3.357-7.5 7.5s3.358 7.5 7.5 7.5h238c10.58 0 19.188-8.607 19.188-19.188v-69.741c0-10.579-8.608-19.187-19.188-19.187zm-66.212-29.522h-313.707c-9.575 0-17.979-7.743-17.677-17.63.291-9.378 8.036-16.568 17.072-16.568h314.312zm-65.332-122.51h-19.065v-88.827h19.065zm-75.84 0v-88.827h41.775v88.827zm-90.84 0v-88.827h41.775v88.827zm56.775-88.827h19.065v88.827h-19.065zm-117.118-15.079v-28.631c0-.044.036-.079.079-.079h253.143c.044 0 .079.035.079.079 0 .123.044 28.71-.079 28.71-10.173 0-241.275 0-253.143 0-.043 0-.079-.035-.079-.079zm26.277 15.079h19.065v88.827h-19.065zm-22.63 103.827h246.008c.044 0 .079.035.079.079v28.71h-246.167c0-.123-.043-28.789.08-28.789zm-113.102 225.962v-69.741c0-2.31 1.879-4.188 4.188-4.188h54.584v78.117h-54.584c-2.309-.001-4.188-1.88-4.188-4.188zm100.936 4.187h-27.164v-78.117h27.164zm-13.437-93.117c-25.708 0-46.622-20.915-46.622-46.622s20.915-46.621 46.622-46.621h336.575c4.004 0 7.261 3.258 7.261 7.262s-3.257 7.261-7.261 7.261c-10.446 0-296.136 0-336.575 0-18.17 0-32.765 15.141-32.075 33.331.647 17.011 14.698 30.867 32.075 30.867h.605 335.97c4.004 0 7.261 3.258 7.261 7.262s-3.257 7.261-7.261 7.261c-19.202-.001-318.168-.001-336.575-.001zm283.775 93.117v-78.117h27.164v78.117zm100.936-4.187c0 2.309-1.879 4.188-4.188 4.188h-54.584v-78.117h54.584c2.309 0 4.188 1.879 4.188 4.188z"/></g></svg>